<svg width="56" height="43" viewBox="0 0 56 43" fill="none" xmlns="http://www.w3.org/2000/svg">
<path d="M50.5 1.5C47.725 0.625 44.675 0.25 41.75 0.25C36.875 0.25 31.625 1.25 28 4C24.375 1.25 19.125 0.25 14.25 0.25C9.375 0.25 4.125 1.25 0.5 4V40.625C0.5 41.25 1.125 41.875 1.75 41.875C2 41.875 2.125 41.75 2.375 41.75C5.75 40.125 10.625 39 14.25 39C19.125 39 24.375 40 28 42.75C31.375 40.625 37.5 39 41.75 39C45.875 39 50.125 39.75 53.625 41.625C53.875 41.75 54 41.75 54.25 41.75C54.875 41.75 55.5 41.125 55.5 40.5V4C54 2.875 52.375 2.125 50.5 1.5ZM50.5 35.25C47.75 34.375 44.75 34 41.75 34C37.5 34 31.375 35.625 28 37.75V9C31.375 6.875 37.5 5.25 41.75 5.25C44.75 5.25 47.75 5.625 50.5 6.5V35.25Z" fill="url(#paint0_angular)"/>
<path d="M41.75 15.25C43.95 15.25 46.075 15.475 48 15.9V12.1C46.025 11.725 43.9 11.5 41.75 11.5C37.5 11.5 33.65 12.225 30.5 13.575V17.725C33.325 16.125 37.25 15.25 41.75 15.25Z" fill="url(#paint1_angular)"/>
<path d="M30.5 20.2249V24.3749C33.325 22.7749 37.25 21.8999 41.75 21.8999C43.95 21.8999 46.075 22.1249 48 22.5499V18.7499C46.025 18.3749 43.9 18.1499 41.75 18.1499C37.5 18.1499 33.65 18.8999 30.5 20.2249Z" fill="url(#paint2_angular)"/>
<path d="M41.75 24.8252C37.5 24.8252 33.65 25.5502 30.5 26.9002V31.0502C33.325 29.4502 37.25 28.5752 41.75 28.5752C43.95 28.5752 46.075 28.8002 48 29.2252V25.4252C46.025 25.0252 43.9 24.8252 41.75 24.8252Z" fill="url(#paint3_angular)"/>
<defs>
<radialGradient id="paint0_angular" cx="0" cy="0" r="1" gradientUnits="userSpaceOnUse" gradientTransform="translate(59.7788 -1.40009) rotate(84.6125) scale(21.506 33.868)">
<stop offset="0.277904" stop-color="#162E41"/>
<stop offset="0.990608" stop-color="#09131B"/>
</radialGradient>
<radialGradient id="paint1_angular" cx="0" cy="0" r="1" gradientUnits="userSpaceOnUse" gradientTransform="translate(49.3614 11.2583) rotate(78.4221) scale(3.20121 10.6038)">
<stop offset="0.277904" stop-color="#162E41"/>
<stop offset="0.990608" stop-color="#09131B"/>
</radialGradient>
<radialGradient id="paint2_angular" cx="0" cy="0" r="1" gradientUnits="userSpaceOnUse" gradientTransform="translate(49.3614 17.9082) rotate(78.4221) scale(3.20121 10.6038)">
<stop offset="0.277904" stop-color="#162E41"/>
<stop offset="0.990608" stop-color="#09131B"/>
</radialGradient>
<radialGradient id="paint3_angular" cx="0" cy="0" r="1" gradientUnits="userSpaceOnUse" gradientTransform="translate(49.3614 24.5835) rotate(78.4221) scale(3.20121 10.6038)">
<stop offset="0.277904" stop-color="#162E41"/>
<stop offset="0.990608" stop-color="#09131B"/>
</radialGradient>
</defs>
</svg>
