<svg width="16" height="16" viewBox="0 0 16 16" fill="none" xmlns="http://www.w3.org/2000/svg">
<g opacity="0.85">
<path d="M13.3087 10.2636C12.4907 10.2636 11.6992 10.1306 10.9609 9.89114C10.7281 9.81133 10.4687 9.87119 10.2891 10.0508L9.24489 11.361C7.36261 10.4631 5.60005 8.76709 4.66223 6.8183L5.95921 5.71421C6.13879 5.52798 6.192 5.26858 6.11884 5.03579C5.87275 4.29751 5.74637 3.50602 5.74637 2.68793C5.74637 2.32877 5.44707 2.02946 5.08791 2.02946H2.78661C2.42744 2.02946 1.99512 2.18909 1.99512 2.68793C1.99512 8.86686 7.13647 14.0016 13.3087 14.0016C13.781 14.0016 13.9672 13.5825 13.9672 13.2167V10.9221C13.9672 10.5629 13.6679 10.2636 13.3087 10.2636Z" fill="#435C70"/>
</g>
</svg>
