<svg width="70" height="70" viewBox="0 0 70 70" fill="none" xmlns="http://www.w3.org/2000/svg">
<path d="M35 37.1875C39.7542 37.1875 43.9542 38.325 47.3667 39.8125C50.5167 41.2125 52.5 44.3625 52.5 47.775V52.5H17.5V47.8042C17.5 44.3625 19.4833 41.2125 22.6333 39.8417C26.0458 38.325 30.2458 37.1875 35 37.1875ZM11.6667 37.9167C14.875 37.9167 17.5 35.2917 17.5 32.0833C17.5 28.875 14.875 26.25 11.6667 26.25C8.45833 26.25 5.83333 28.875 5.83333 32.0833C5.83333 35.2917 8.45833 37.9167 11.6667 37.9167ZM14.9625 41.125C13.8833 40.95 12.8042 40.8333 11.6667 40.8333C8.77917 40.8333 6.0375 41.4458 3.55833 42.525C1.4 43.4583 0 45.5583 0 47.9208V52.5H13.125V47.8042C13.125 45.3833 13.7958 43.1083 14.9625 41.125ZM58.3333 37.9167C61.5417 37.9167 64.1667 35.2917 64.1667 32.0833C64.1667 28.875 61.5417 26.25 58.3333 26.25C55.125 26.25 52.5 28.875 52.5 32.0833C52.5 35.2917 55.125 37.9167 58.3333 37.9167ZM70 47.9208C70 45.5583 68.6 43.4583 66.4417 42.525C63.9625 41.4458 61.2208 40.8333 58.3333 40.8333C57.1958 40.8333 56.1167 40.95 55.0375 41.125C56.2042 43.1083 56.875 45.3833 56.875 47.8042V52.5H70V47.9208ZM35 17.5C39.8417 17.5 43.75 21.4083 43.75 26.25C43.75 31.0917 39.8417 35 35 35C30.1583 35 26.25 31.0917 26.25 26.25C26.25 21.4083 30.1583 17.5 35 17.5Z" fill="#F5D9BC"/>
</svg>
