<svg width="24" height="12" viewBox="0 0 24 12" fill="none" xmlns="http://www.w3.org/2000/svg">
<path d="M18.6 0.619995C17.16 0.619995 15.8 1.17999 14.83 2.14999L12 4.66L10.48 6H10.49L7.8 8.39C7.16 9.03 6.31 9.38 5.4 9.38C3.53 9.38 2.01 7.87 2.01 6C2.01 4.13 3.53 2.62 5.4 2.62C6.31 2.62 7.16 2.96999 7.84 3.64999L8.97 4.64999L10.48 3.31L9.22 2.2C8.2 1.18 6.84 0.619995 5.4 0.619995C2.42 0.619995 0 3.04 0 6C0 8.96 2.42 11.38 5.4 11.38C6.84 11.38 8.2 10.82 9.17 9.85L12 7.35L12.01 7.35999L13.52 6H13.51L16.2 3.60999C16.84 2.97 17.69 2.62 18.6 2.62C20.47 2.62 21.99 4.13 21.99 6C21.99 7.87 20.47 9.38 18.6 9.38C17.7 9.38 16.84 9.03 16.16 8.35L15.02 7.34L13.51 8.68L14.78 9.8C15.8 10.81 17.15 11.37 18.6 11.37C21.58 11.37 24 8.96 24 5.99C24 3.01999 21.58 0.619995 18.6 0.619995Z" fill="#E55C31"/>
</svg>
