<svg width="52" height="64" viewBox="0 0 52 64" fill="none" xmlns="http://www.w3.org/2000/svg">
<g clip-path="url(#clip0)">
<path d="M51.4135 24.7242L45.7763 18.2783L46.5618 9.75316L38.2215 7.85868L33.8549 0.465576L25.9997 3.83868L18.1446 0.465576L13.778 7.83558L5.43766 9.70696L6.22318 18.2552L0.585938 24.7242L6.22318 31.1701L5.43766 39.7183L13.778 41.6128L18.1446 48.9828L25.9997 45.5866L33.8549 48.9597L38.2215 41.5897L46.5618 39.6952L45.7763 31.1701L51.4135 24.7242ZM21.587 35.629L12.8077 26.8266L16.227 23.4073L21.587 28.7904L35.1025 15.2287L38.5218 18.648L21.587 35.629Z" fill="#F5D9BC"/>
<g clip-path="url(#clip1)">
<path d="M23.0991 37.753L11.3962 34.6173C10.1089 34.2723 8.73223 35.244 8.32262 36.7727L2.35295 59.005L11.6621 57.0309L18.737 63.3951L24.6949 41.1596C25.1045 39.6309 24.3864 38.098 23.0991 37.753ZM17.5135 58.5988L12.4738 54.0013L5.81064 55.463L10.6515 37.3967L22.3544 40.5325L17.5135 58.5988Z" fill="#F5D9BC"/>
</g>
<g clip-path="url(#clip2)">
<path d="M40.0229 34.6172L28.3201 37.753C27.0328 38.0979 26.3263 39.6277 26.7359 41.1564L32.6822 63.395L39.7571 57.0308L49.0662 59.0049L43.1083 36.7695C42.6986 35.2408 41.3102 34.2723 40.0229 34.6172ZM45.6085 55.4629L38.9453 54.0012L33.9057 58.5987L29.0648 40.5324L40.7677 37.3966L45.6085 55.4629Z" fill="#F5D9BC"/>
</g>
</g>
<defs>
<clipPath id="clip0">
<rect width="52" height="64" fill="white"/>
</clipPath>
<clipPath id="clip1">
<rect width="29.0777" height="34.5297" fill="white" transform="translate(4.32227 28.2531) rotate(15)"/>
</clipPath>
<clipPath id="clip2">
<rect width="29.0777" height="34.5297" fill="white" transform="translate(19.0107 35.7788) rotate(-15)"/>
</clipPath>
</defs>
</svg>
