<svg width="62" height="70" viewBox="0 0 62 70" fill="none" xmlns="http://www.w3.org/2000/svg">
<path d="M56.4138 24.7242L50.7765 18.2783L51.562 9.75316L43.2217 7.85868L38.8551 0.465576L31 3.83868L23.1448 0.465576L18.7783 7.83558L10.4379 9.70696L11.2234 18.2552L5.58618 24.7242L11.2234 31.1701L10.4379 39.7183L18.7783 41.6128L23.1448 48.9828L31 45.5866L38.8551 48.9597L43.2217 41.5897L51.562 39.6952L50.7765 31.1701L56.4138 24.7242ZM26.5872 35.629L17.8079 26.8266L21.2272 23.4073L26.5872 28.7904L40.1027 15.2287L43.522 18.648L26.5872 35.629Z" fill="#F5D9BC"/>
<path d="M28.0998 37.753L16.3969 34.6173C15.1096 34.2723 13.7329 35.244 13.3233 36.7727L7.35362 59.005L16.6627 57.0309L23.7376 63.3951L29.6956 41.1596C30.1052 39.6309 29.3871 38.098 28.0998 37.753ZM22.5142 58.5988L17.4745 54.0013L10.8113 55.463L15.6522 37.3967L27.355 40.5325L22.5142 58.5988Z" fill="#F5D9BC"/>
<path d="M45.0225 34.6171L33.3196 37.7529C32.0323 38.0978 31.3259 39.6276 31.7355 41.1563L37.6818 63.3949L44.7567 57.0307L54.0658 59.0048L48.1078 36.7694C47.6982 35.2407 46.3098 34.2721 45.0225 34.6171ZM50.6081 55.4628L43.9449 54.0011L38.9052 58.5986L34.0644 40.5323L45.7673 37.3965L50.6081 55.4628Z" fill="#F5D9BC"/>
</svg>
